<svg xmlns="http://www.w3.org/2000/svg" xmlns:xlink="http://www.w3.org/1999/xlink" width="367.23" height="103.428" viewBox="0 0 367.23 103.428">
  <defs>
    <linearGradient id="linear-gradient" x1="1.02" y1="0.5" x2="-0.001" y2="0.5" gradientUnits="objectBoundingBox">
      <stop offset="0" stop-color="#4ca935"/>
      <stop offset="0.992" stop-color="#20572f"/>
    </linearGradient>
    <linearGradient id="linear-gradient-2" x1="1.363" y1="0.5" x2="-0.63" y2="0.5" xlink:href="#linear-gradient"/>
  </defs>
  <g id="Group_11" data-name="Group 11" transform="translate(-58.486 -713)">
    <g id="Group_4" data-name="Group 4" transform="translate(-1040.912 288.295)">
      <path id="Path_11" data-name="Path 11" d="M1233.592,449.079a54.21,54.21,0,0,0-8.364-.741,34.868,34.868,0,0,0-14.4,3,3.978,3.978,0,0,0-2.436,3.672v36.94a3.834,3.834,0,0,0,3.875,3.875h1.551a3.79,3.79,0,0,0,3.875-3.875V458.541a28.862,28.862,0,0,1,7.689-1.057,46.175,46.175,0,0,1,7.057.565,3.74,3.74,0,0,0,3.061-.7,3.811,3.811,0,0,0,1.439-3.037v-1.32A3.886,3.886,0,0,0,1233.592,449.079Z" fill="#242d36" stroke="rgba(0,0,0,0)" stroke-width="1"/>
      <path id="Path_12" data-name="Path 12" d="M1260.23,448.338c-11.276,0-18.853,7.3-18.853,18.155v12.572c0,10.16,7.929,17.533,18.853,17.533A24.309,24.309,0,0,0,1277,489.915a3.7,3.7,0,0,0,1.505-2.415,3.782,3.782,0,0,0-.98-3.176l-.729-.86a3.811,3.811,0,0,0-5.178-.8l-.388.3a16,16,0,0,1-10.92,4.564c-4.792,0-9.629-2.618-9.629-8.465v-1.713h24.53a3.833,3.833,0,0,0,3.875-3.873v-6.986C1279.083,455.634,1271.506,448.338,1260.23,448.338Zm0,9.146c3.567,0,9.552,1.171,9.552,9.009v1.869h-19.1v-1.869C1250.678,459.047,1255.872,457.484,1260.23,457.484Z" fill="#242d36" stroke="rgba(0,0,0,0)" stroke-width="1"/>
      <path id="Path_13" data-name="Path 13" d="M1307.34,448.338c-11.276,0-18.853,7.3-18.853,18.155v12.572c0,10.16,7.929,17.533,18.853,17.533a24.31,24.31,0,0,0,16.767-6.683,3.7,3.7,0,0,0,1.505-2.415,3.779,3.779,0,0,0-.98-3.176l-.729-.86a3.811,3.811,0,0,0-5.178-.8l-.387.3a16,16,0,0,1-10.92,4.564c-4.793,0-9.629-2.618-9.629-8.465v-1.713h24.529a3.833,3.833,0,0,0,3.875-3.873v-6.986C1326.193,455.634,1318.616,448.338,1307.34,448.338Zm0,9.146c3.567,0,9.552,1.171,9.552,9.009v1.869h-19.1v-1.869C1297.789,459.047,1302.983,457.484,1307.34,457.484Z" fill="#242d36" stroke="rgba(0,0,0,0)" stroke-width="1"/>
      <path id="Path_14" data-name="Path 14" d="M1353.4,495.813a4.2,4.2,0,0,0,3.186-1.894l.206-.307,15.345-39.225.134-.42a3.936,3.936,0,0,0-.7-3.4,3.776,3.776,0,0,0-2.992-1.455h-1.63a4.248,4.248,0,0,0-3.67,2.272l-11.084,28.643-11.017-28.353-.128-.29a4.092,4.092,0,0,0-3.593-2.272h-1.629a3.833,3.833,0,0,0-3.532,5.35l15.162,38.756a3.974,3.974,0,0,0,3.557,2.6Z" fill="#242d36" stroke="rgba(0,0,0,0)" stroke-width="1"/>
      <path id="Path_15" data-name="Path 15" d="M1398.379,448.338c-11.694,0-19.551,7.234-19.551,18V478.6c0,10.766,7.857,18,19.551,18s19.551-7.232,19.551-18V466.338C1417.93,455.572,1410.073,448.338,1398.379,448.338Zm10.25,30.262c0,5.676-3.736,8.93-10.25,8.93s-10.25-3.254-10.25-8.93V466.338c0-5.626,3.736-8.854,10.25-8.854s10.25,3.228,10.25,8.854Z" fill="#242d36" stroke="rgba(0,0,0,0)" stroke-width="1"/>
      <path id="Path_16" data-name="Path 16" d="M1462.253,449.115H1460.7a3.872,3.872,0,0,0-3.874,3.952v30.507a21.158,21.158,0,0,1-8.155,1.628c-9.326,0-10.405-5.318-10.405-9.318V453.067a3.957,3.957,0,0,0-3.952-3.952h-1.474a3.872,3.872,0,0,0-3.875,3.952v22.9c0,11.34,7.462,18.386,19.473,18.386a29.989,29.989,0,0,0,8.388-1.182v.371c.031,2.863-.657,5.025-2.043,6.427-1.468,1.481-3.837,2.234-7.043,2.234-4.724,0-7.963-2.221-10.754-4.633a3.754,3.754,0,0,0-5.58.493l-.782.926-.225.3a4,4,0,0,0,.542,5.128c5.161,4.665,10.656,6.934,16.8,6.934,11.514,0,18.387-6.641,18.387-17.767v-40.51A3.872,3.872,0,0,0,1462.253,449.115Z" fill="#242d36" stroke="rgba(0,0,0,0)" stroke-width="1"/>
    </g>
    <g id="Group_10" data-name="Group 10" transform="translate(-333 661)">
      <g id="Group_1" data-name="Group 1" transform="translate(-844.912 -16.705)">
        <path id="Path_1" data-name="Path 1" d="M1314.184,150.668a9.993,9.993,0,0,0-9.6,7.223h-25.761a11.373,11.373,0,0,0-13.009-8.532l-11.6-19.387a11.452,11.452,0,0,0,1.272-18.113L1265.916,91.5a11.365,11.365,0,0,0,12.411-6.989h26.861a9.992,9.992,0,1,0-.673-6.817H1278.9a11.468,11.468,0,1,0-19.1,10.787l-10.531,20.566a11.461,11.461,0,1,0-1.867,22.825l12.312,20.573a11.465,11.465,0,1,0,18.714,12.268h26.621a9.992,9.992,0,1,0,9.133-14.04Z" fill="url(#linear-gradient)"/>
        <path id="Path_2" data-name="Path 2" d="M1307.933,93.335a3.407,3.407,0,0,0-4.653,1.258l-7.662,13.337a13.212,13.212,0,0,0-17.343,9.718h-10.227a3.409,3.409,0,0,0,0,6.818h10.567a13.246,13.246,0,1,0,22.651-12.68l7.926-13.8A3.41,3.41,0,0,0,1307.933,93.335Z" fill="url(#linear-gradient-2)"/>
      </g>
    </g>
  </g>
</svg>
