<svg xmlns="http://www.w3.org/2000/svg" xmlns:xlink="http://www.w3.org/1999/xlink" width="107" height="107" viewBox="0 0 107 107">
  <defs>
    <filter id="Ellipse_24" x="0" y="0" width="107" height="107" filterUnits="userSpaceOnUse">
      <feOffset dy="11" input="SourceAlpha"/>
      <feGaussianBlur stdDeviation="7.5" result="blur"/>
      <feFlood flood-opacity="0.071"/>
      <feComposite operator="in" in2="blur"/>
      <feComposite in="SourceGraphic"/>
    </filter>
  </defs>
  <g id="Group_7604" data-name="Group 7604" transform="translate(-1047.5 -1323.5)">
    <g id="Group_5997" data-name="Group 5997" transform="translate(893 81)">
      <g transform="matrix(1, 0, 0, 1, 154.5, 1242.5)" filter="url(#Ellipse_24)">
        <circle id="Ellipse_24-2" data-name="Ellipse 24" cx="31" cy="31" r="31" transform="translate(22.5 11.5)" fill="#fff"/>
      </g>
    </g>
    <g id="noun_diversify_1584266" transform="translate(1082 1346.964)">
      <path id="Path_7775" data-name="Path 7775" d="M28.2,2.294a.579.579,0,0,0-.964,0l-4.821,8.351a.557.557,0,0,0,.482.835h9.642a.557.557,0,0,0,.482-.835Zm-4.339,8.072,3.857-6.68,3.857,6.68Z" transform="translate(-9.017)" fill="#1c9989" stroke="#1c9989" stroke-width="0.8"/>
      <path id="Path_7776" data-name="Path 7776" d="M53.464,44H44.557a.557.557,0,0,0-.557.557v8.907a.557.557,0,0,0,.557.557h8.907a.557.557,0,0,0,.557-.557V44.557A.557.557,0,0,0,53.464,44Zm-.557,8.907H45.113V45.113h7.794Z" transform="translate(-18.618 -18.602)" fill="#1c9989" stroke="#1c9989" stroke-width="0.8"/>
      <path id="Path_7777" data-name="Path 7777" d="M7.01,44a5.01,5.01,0,1,0,5.01,5.01A5.01,5.01,0,0,0,7.01,44Zm0,8.907a3.9,3.9,0,1,1,3.9-3.9A3.9,3.9,0,0,1,7.01,52.907Z" transform="translate(0 -18.602)" fill="#1c9989" stroke="#1c9989" stroke-width="0.8"/>
      <path id="Path_7778" data-name="Path 7778" d="M15.581,12.279l-.464-1.012A13.935,13.935,0,0,0,7.79,28.562l1.05-.371a12.821,12.821,0,0,1,6.741-15.912Z" transform="translate(-2.214 -4.092)" fill="#1c9989" stroke="#1c9989" stroke-width="0.8"/>
      <path id="Path_7779" data-name="Path 7779" d="M27.564,56.151a12.718,12.718,0,0,1-5.125-1.067l-.445,1.02a13.963,13.963,0,0,0,10.79.149l-.418-1.032a12.738,12.738,0,0,1-4.8.93Z" transform="translate(-8.863 -23.516)" fill="#1c9989" stroke="#1c9989" stroke-width="0.8"/>
      <path id="Path_7780" data-name="Path 7780" d="M49.48,24.147a12.8,12.8,0,0,1-.553,3.735l1.065.324A13.936,13.936,0,0,0,43.423,11.97h0c-.121-.067-.243-.132-.366-.2l-.509.991c.111.056.223.117.334.178l.267-.487-.27.487A12.822,12.822,0,0,1,49.48,24.147Z" transform="translate(-17.975 -4.317)" fill="#1c9989" stroke="#1c9989" stroke-width="0.8"/>
    </g>
  </g>
</svg>
