<svg xmlns="http://www.w3.org/2000/svg" xmlns:xlink="http://www.w3.org/1999/xlink" width="107" height="107" viewBox="0 0 107 107">
  <defs>
    <filter id="Ellipse_295" x="0" y="0" width="107" height="107" filterUnits="userSpaceOnUse">
      <feOffset dy="11" input="SourceAlpha"/>
      <feGaussianBlur stdDeviation="7.5" result="blur"/>
      <feFlood flood-opacity="0.071"/>
      <feComposite operator="in" in2="blur"/>
      <feComposite in="SourceGraphic"/>
    </filter>
  </defs>
  <g id="Group_7606" data-name="Group 7606" transform="translate(-455.5 -1633.5)">
    <g transform="matrix(1, 0, 0, 1, 455.5, 1633.5)" filter="url(#Ellipse_295)">
      <circle id="Ellipse_295-2" data-name="Ellipse 295" cx="31" cy="31" r="31" transform="translate(22.5 11.5)" fill="#fff"/>
    </g>
    <g id="noun_Umbrella_2097530" transform="translate(485.937 1653.5)">
      <path id="Path_7785" data-name="Path 7785" d="M23.454,6.5C15.107,6.5,8.063,16.758,8.063,23.2a.579.579,0,0,0,.578.578H22.876V35.555a2.931,2.931,0,1,0,5.863,0,.578.578,0,0,0-1.156,0,1.775,1.775,0,1,1-3.551,0V23.778H38.268a.579.579,0,0,0,.578-.578C38.846,16.758,31.8,6.5,23.454,6.5ZM9.238,22.622c.4-5.94,6.847-14.966,14.216-14.966s13.813,9.026,14.215,14.966Z" transform="translate(0 0)" fill="#1c9989" stroke="#1c9989" stroke-width="0.5"/>
    </g>
  </g>
</svg>
