<svg xmlns="http://www.w3.org/2000/svg" xmlns:xlink="http://www.w3.org/1999/xlink" width="107" height="107" viewBox="0 0 107 107">
  <defs>
    <filter id="Ellipse_24" x="0" y="0" width="107" height="107" filterUnits="userSpaceOnUse">
      <feOffset dy="11" input="SourceAlpha"/>
      <feGaussianBlur stdDeviation="7.5" result="blur"/>
      <feFlood flood-opacity="0.071"/>
      <feComposite operator="in" in2="blur"/>
      <feComposite in="SourceGraphic"/>
    </filter>
  </defs>
  <g id="Group_7605" data-name="Group 7605" transform="translate(-156.5 -1633.5)">
    <g id="Group_7414" data-name="Group 7414" transform="translate(2 391)">
      <g transform="matrix(1, 0, 0, 1, 154.5, 1242.5)" filter="url(#Ellipse_24)">
        <circle id="Ellipse_24-2" data-name="Ellipse 24" cx="31" cy="31" r="31" transform="translate(22.5 11.5)" fill="#fff"/>
      </g>
    </g>
    <g id="noun_secure_195255" transform="translate(175.455 1647.181)">
      <path id="Path_7781" data-name="Path 7781" d="M41.947,61.886H27.1a4.558,4.558,0,0,1-4.553-4.553V46.864A4.558,4.558,0,0,1,27.1,42.311h14.85A4.558,4.558,0,0,1,46.5,46.864v10.47A4.558,4.558,0,0,1,41.947,61.886ZM27.1,43.62a3.248,3.248,0,0,0-3.244,3.244v10.47A3.248,3.248,0,0,0,27.1,60.578h14.85a3.248,3.248,0,0,0,3.244-3.244V46.864a3.248,3.248,0,0,0-3.244-3.244Z" transform="translate(0 -16.626)" fill="#1c9989" stroke="#1c9989" stroke-width="0.5"/>
      <path id="Path_7782" data-name="Path 7782" d="M41.834,61.94l-3.647-3.648.925-.925,2.722,2.722,5.735-5.735.925.925Z" transform="translate(-8.819 -23.415)" fill="#1c9989" stroke="#1c9989" stroke-width="0.5"/>
      <path id="Path_7783" data-name="Path 7783" d="M38.953,32.058H37.644v-4.3a5.39,5.39,0,1,1,10.78,0v4.278H47.116V27.755a4.081,4.081,0,1,0-8.163,0Z" transform="translate(-8.512 -5.381)" fill="#1c9989" stroke="#1c9989" stroke-width="0.5"/>
      <path id="Path_7784" data-name="Path 7784" d="M47.208,26.676H45.9v-4.3a8.246,8.246,0,1,0-16.492,0v4.3H28.1v-4.3a9.555,9.555,0,1,1,19.11,0Z" transform="translate(-3.131 0)" fill="#1c9989" stroke="#1c9989" stroke-width="0.5"/>
    </g>
  </g>
</svg>
