<svg xmlns="http://www.w3.org/2000/svg" xmlns:xlink="http://www.w3.org/1999/xlink" width="107" height="107" viewBox="0 0 107 107">
  <defs>
    <filter id="Ellipse_24" x="0" y="0" width="107" height="107" filterUnits="userSpaceOnUse">
      <feOffset dy="11" input="SourceAlpha"/>
      <feGaussianBlur stdDeviation="7.5" result="blur"/>
      <feFlood flood-opacity="0.071"/>
      <feComposite operator="in" in2="blur"/>
      <feComposite in="SourceGraphic"/>
    </filter>
  </defs>
  <g id="Group_7607" data-name="Group 7607" transform="translate(-754.5 -1634.5)">
    <g id="Group_7413" data-name="Group 7413" transform="translate(600 392)">
      <g transform="matrix(1, 0, 0, 1, 154.5, 1242.5)" filter="url(#Ellipse_24)">
        <circle id="Ellipse_24-2" data-name="Ellipse 24" cx="31" cy="31" r="31" transform="translate(22.5 11.5)" fill="#fff"/>
      </g>
    </g>
    <g id="noun_automation_3541872" transform="translate(762 1636)">
      <g id="Group_7423" data-name="Group 7423" transform="translate(31 24)">
        <g id="Group_7422" data-name="Group 7422" transform="translate(0)">
          <path id="Path_7786" data-name="Path 7786" d="M10.488,7.033A.71.71,0,1,1,11,8.359q-.688.264-1.347.594A14.933,14.933,0,0,0,1.573,24.431a.71.71,0,1,1-1.405.2A16.353,16.353,0,0,1,9.012,7.684Q9.733,7.322,10.488,7.033ZM6.271,35.148a.71.71,0,1,1,.875-1.118,14.91,14.91,0,0,0,18.462-.078.71.71,0,1,1,.885,1.111,16.33,16.33,0,0,1-20.221.086Zm3.937-1.414a.71.71,0,0,1-.566.829L7.2,35.024l.22,2.617a.71.71,0,1,1-1.415.119l-.274-3.255a.71.71,0,0,1,.575-.757l3.066-.58A.71.71,0,0,1,10.208,33.734ZM21.884,6.928a16.332,16.332,0,0,1,10.77,15.357q0,.612-.045,1.218l1.335-1A.71.71,0,1,1,34.8,23.64L32.18,25.6a.71.71,0,0,1-.947-.087l-2.117-2.293a.71.71,0,0,1,1.043-.963L31.2,23.376q.039-.543.039-1.091A14.912,14.912,0,0,0,21.4,8.263a.71.71,0,0,1,.483-1.335ZM7.3,6.07a.71.71,0,0,1,.929-.381h0l2.879,1.205a.71.71,0,0,1,.405.86h0l-.945,3.127a.71.71,0,0,1-1.359-.411h0l.76-2.514L7.684,7A.71.71,0,0,1,7.3,6.07Z" transform="translate(0 -4.301)" fill="#1c9989"/>
          <path id="Path_7787" data-name="Path 7787" d="M17.09,6.152a3.076,3.076,0,1,0-3.076-3.076A3.076,3.076,0,0,0,17.09,6.152ZM30.578,22.479A3.076,3.076,0,1,1,27.5,25.555,3.076,3.076,0,0,1,30.578,22.479Zm-26.5,0A3.076,3.076,0,1,1,1,25.555,3.076,3.076,0,0,1,4.076,22.479Zm26.5,1.42a1.656,1.656,0,1,0,1.656,1.656A1.656,1.656,0,0,0,30.578,23.9Zm-26.5,0a1.656,1.656,0,1,0,1.656,1.656A1.656,1.656,0,0,0,4.076,23.9ZM17.09,1.42a1.656,1.656,0,1,1-1.656,1.656A1.656,1.656,0,0,1,17.09,1.42Z" transform="translate(-0.763 0)" fill="#1c9989"/>
          <path id="Path_7788" data-name="Path 7788" d="M35.636,53.034l-1.518-.128a.71.71,0,0,1-.6-.455,8.353,8.353,0,0,1-.511-2.2.71.71,0,0,1,.347-.677l1.3-.764a6.721,6.721,0,0,1,.4-1.711l-.832-1.242a.71.71,0,0,1-.016-.766,8.518,8.518,0,0,1,1.436-1.765.71.71,0,0,1,.738-.146l1.427.543A6.909,6.909,0,0,1,39.327,43l.459-1.433a.71.71,0,0,1,.582-.487,8.74,8.74,0,0,1,2.3,0,.71.71,0,0,1,.582.487L43.709,43a6.908,6.908,0,0,1,1.528.723l1.427-.543a.71.71,0,0,1,.738.146,8.518,8.518,0,0,1,1.436,1.765.71.71,0,0,1-.016.766L47.99,47.1a6.72,6.72,0,0,1,.4,1.711l1.3.764a.71.71,0,0,1,.347.677,8.353,8.353,0,0,1-.511,2.2.71.71,0,0,1-.6.455l-1.518.128a6.864,6.864,0,0,1-1.089,1.339l.21,1.481a.71.71,0,0,1-.316.695,8.555,8.555,0,0,1-2.074.981.71.71,0,0,1-.73-.188l-1.048-1.1a7.068,7.068,0,0,1-1.673,0l-1.048,1.1a.71.71,0,0,1-.73.188,8.555,8.555,0,0,1-2.074-.981.71.71,0,0,1-.316-.695l.21-1.481A6.864,6.864,0,0,1,35.636,53.034Zm.487-1.384a.71.71,0,0,1,.564.368,5.442,5.442,0,0,0,1.254,1.54.71.71,0,0,1,.243.64l-.2,1.392a7.134,7.134,0,0,0,.935.442l.985-1.038a.71.71,0,0,1,.638-.21,5.628,5.628,0,0,0,1.948,0,.71.71,0,0,1,.638.21l.985,1.038a7.135,7.135,0,0,0,.935-.442l-.2-1.392a.71.71,0,0,1,.243-.64,5.442,5.442,0,0,0,1.254-1.54.71.71,0,0,1,.564-.368l1.425-.12a6.928,6.928,0,0,0,.226-.972l-1.221-.718A.71.71,0,0,1,47,49.256a5.307,5.307,0,0,0-.454-1.954.71.71,0,0,1,.059-.683l.781-1.165a7.1,7.1,0,0,0-.641-.786l-1.342.51a.71.71,0,0,1-.665-.086,5.49,5.49,0,0,0-1.77-.837.71.71,0,0,1-.492-.469l-.431-1.347q-.259-.019-.522-.019T41,42.438l-.431,1.347a.71.71,0,0,1-.492.469,5.49,5.49,0,0,0-1.77.837.71.71,0,0,1-.665.086l-1.342-.51a7.1,7.1,0,0,0-.641.786l.781,1.165a.71.71,0,0,1,.059.683,5.307,5.307,0,0,0-.454,1.954.71.71,0,0,1-.349.584l-1.221.718a6.927,6.927,0,0,0,.226.972Zm5.514,2.127a4.261,4.261,0,1,1,4.141-4.259A4.2,4.2,0,0,1,41.637,53.778Zm0-1.42a2.842,2.842,0,1,0-2.721-2.839A2.782,2.782,0,0,0,41.637,52.358Z" transform="translate(-25.191 -31.298)" fill="#1c9989"/>
        </g>
      </g>
    </g>
  </g>
</svg>
