<svg xmlns="http://www.w3.org/2000/svg" xmlns:xlink="http://www.w3.org/1999/xlink" width="107" height="107" viewBox="0 0 107 107">
  <defs>
    <filter id="Ellipse_24" x="0" y="0" width="107" height="107" filterUnits="userSpaceOnUse">
      <feOffset dy="11" input="SourceAlpha"/>
      <feGaussianBlur stdDeviation="7.5" result="blur"/>
      <feFlood flood-opacity="0.071"/>
      <feComposite operator="in" in2="blur"/>
      <feComposite in="SourceGraphic"/>
    </filter>
  </defs>
  <g id="Group_7612" data-name="Group 7612" transform="translate(-754.5 -1603.5)">
    <g id="Group_7421" data-name="Group 7421" transform="translate(600 361)">
      <g transform="matrix(1, 0, 0, 1, 154.5, 1242.5)" filter="url(#Ellipse_24)">
        <circle id="Ellipse_24-2" data-name="Ellipse 24" cx="31" cy="31" r="31" transform="translate(22.5 11.5)" fill="#fff"/>
      </g>
    </g>
    <g id="surface1" transform="translate(794 1629)">
      <path id="Path_6676" data-name="Path 6676" d="M28.56,9.109V9.083c-.015-.323-.024-.664-.03-1.043a3.559,3.559,0,0,0-3.351-3.486,13.809,13.809,0,0,1-9.4-3.961L15.757.571a2.149,2.149,0,0,0-2.92,0l-.022.021a13.81,13.81,0,0,1-9.4,3.962A3.558,3.558,0,0,0,.065,8.04C.06,8.417.05,8.758.035,9.083l0,.061C-.041,13.081-.135,17.98,1.5,22.427a16.909,16.909,0,0,0,4.057,6.319,21.22,21.22,0,0,0,7.938,4.7,2.459,2.459,0,0,0,.325.089,2.4,2.4,0,0,0,.945,0,2.464,2.464,0,0,0,.327-.089,21.234,21.234,0,0,0,7.93-4.7,16.933,16.933,0,0,0,4.057-6.32C28.728,17.962,28.635,13.054,28.56,9.109ZM25.234,21.741c-1.729,4.687-5.257,7.906-10.788,9.84a.5.5,0,0,1-.062.017.442.442,0,0,1-.173,0,.492.492,0,0,1-.062-.017C8.612,29.65,5.081,26.433,3.353,21.746c-1.511-4.1-1.425-8.6-1.35-12.564V9.16c.015-.341.026-.7.031-1.091A1.582,1.582,0,0,1,3.526,6.521,17.287,17.287,0,0,0,9.394,5.23a15.351,15.351,0,0,0,4.782-3.212.182.182,0,0,1,.244,0A15.357,15.357,0,0,0,19.2,5.23a17.288,17.288,0,0,0,5.868,1.291,1.581,1.581,0,0,1,1.49,1.548c.006.394.016.752.031,1.09C26.665,13.132,26.749,17.633,25.234,21.741Zm0,0" transform="translate(0 0.001)" fill="#1c9989"/>
      <path id="Path_6677" data-name="Path 6677" d="M98.766,128.41a8.368,8.368,0,1,0,8.368,8.368A8.377,8.377,0,0,0,98.766,128.41Zm0,14.766a6.4,6.4,0,1,1,6.4-6.4A6.4,6.4,0,0,1,98.766,143.176Zm0,0" transform="translate(-84.47 -119.989)" fill="#1c9989"/>
      <path id="Path_6678" data-name="Path 6678" d="M160.3,212.28l-3.887,3.887-1.055-1.055a.985.985,0,0,0-1.393,1.393l1.752,1.752a.985.985,0,0,0,1.393,0l4.584-4.583a.985.985,0,1,0-1.393-1.393Zm0,0" transform="translate(-143.595 -198.088)" fill="#1c9989"/>
    </g>
  </g>
</svg>
